<?xml version="1.0" standalone="no"?>
<!DOCTYPE svg PUBLIC "-//W3C//DTD SVG 20010904//EN"
 "http://www.w3.org/TR/2001/REC-SVG-20010904/DTD/svg10.dtd">
<svg version="1.0" xmlns="http://www.w3.org/2000/svg"
 width="1024.000000pt" height="1024.000000pt" viewBox="0 0 1024.000000 1024.000000"
 preserveAspectRatio="xMidYMid meet">
<g transform="translate(0.000000,1024.000000) scale(0.100000,-0.100000)"
fill="#000000" stroke="none">
<path d="M0 8000 l0 -2240 320 0 320 0 0 1920 0 1920 4480 0 4480 0 0 -1600 0
-1600 320 0 320 0 0 1920 0 1920 -5120 0 -5120 0 0 -2240z"/>
<path d="M1280 6080 l0 -1600 320 0 320 0 0 1280 0 1280 640 0 640 0 0 -1280
0 -1280 320 0 320 0 0 960 0 960 320 0 320 0 0 -960 0 -960 320 0 320 0 0
1280 0 1280 640 0 640 0 0 -1280 0 -1280 640 0 640 0 0 960 0 960 320 0 320 0
0 -960 0 -960 320 0 320 0 0 1600 0 1600 -3840 0 -3840 0 0 -1600z"/>
<path d="M9600 3520 l0 -2240 320 0 320 0 0 2240 0 2240 -320 0 -320 0 0
-2240z"/>
<path d="M0 2880 l0 -2240 320 0 320 0 0 -320 0 -320 320 0 320 0 0 320 0 320
320 0 320 0 0 960 0 960 320 0 320 0 0 -960 0 -960 320 0 320 0 0 320 0 320
320 0 320 0 0 -320 0 -320 320 0 320 0 0 1280 0 1280 640 0 640 0 0 -1280 0
-1280 320 0 320 0 0 960 0 960 320 0 320 0 0 -960 0 -960 320 0 320 0 0 1280
0 1280 640 0 640 0 0 320 0 320 -3840 0 -3840 0 0 -1600 0 -1600 -320 0 -320
0 0 2240 0 2240 -320 0 -320 0 0 -2240z"/>
<path d="M8960 320 l0 -320 640 0 640 0 0 320 0 320 -640 0 -640 0 0 -320z"/>
</g>
</svg>
